<svg id="Capa_1" data-name="Capa 1" xmlns="http://www.w3.org/2000/svg" viewBox="0 0 252.44 249.79"><defs><style>.cls-1{fill:#28a745;}</style></defs><title>jalo-success</title><path class="cls-1" d="M256.13,29.6v2.69a13.45,13.45,0,0,0-1,2.22c-1.1,4.13-1.39,8.68-3.35,12.34-2.89,5.4-7,10.07-13.07,12.5a11.51,11.51,0,0,0-6.82,13c.75,3.45,2.09,6.77,3.12,10.16,1.49,4.92,2.94,9.85,4.41,14.78a33.7,33.7,0,0,0,1.71,5.63c3.06,6,3.53,12.5,3.6,19.06,0,3.6-.43,7.27.17,10.77,1,6.1-.33,11.93-1.21,17.81-.68,4.54-2,9-3.06,13.47a58.84,58.84,0,0,1-1.87,6.41c-1,2.83-2.17,5.63-3.46,8.35-1.91,4-3.6,8.22-6.12,11.83-3.17,4.56-4.84,10.55-11,12.66a2.92,2.92,0,0,0-1.67,2c-.28,3-2.58,4.22-4.38,6-3.76,3.76-7.19,7.85-11,11.55a69.1,69.1,0,0,1-9.42,7.84c-5.79,3.87-11.73,7.54-17.82,10.9a51.06,51.06,0,0,1-12.19,5.13c-10.92,2.69-21.81,5.86-33.22,5.76-4.35-.05-8.69-.25-13-.56-4.67-.33-9.37-.63-14-1.37s-8.93-1.93-13.37-3a18.74,18.74,0,0,1-2.94-1.24A13.74,13.74,0,0,0,82.24,245c-6.91-1.24-12.87-4.81-19-7.83-2.21-1.09-4-2.91-6.07-4.38-2.87-2.09-5.81-4.08-8.59-6.28a69,69,0,0,1-5.48-5.07c-4.12-4.12-9-7.62-10.64-13.73A6,6,0,0,0,30.8,205c-4.74-4.3-7.33-9.93-9.77-15.62-.7-1.64-1.29-2.71-3.27-2.95-.8-.09-1.6-1.38-2.14-2.28A26.88,26.88,0,0,1,14,180.54a69.8,69.8,0,0,1-2.66-6.65c-.68-2.26-.91-4.65-1.46-7C8.2,160.05,6,153.25,4.92,146.28c-1-6.69-.92-13.56-1.22-20.36-.08-1.93.16-3.87.27-5.81.17-3,0-6.12.61-9.06,1-4.61,2.76-9,3.58-13.68,1.26-7.19,5.66-13,8-19.68S23.26,66,27,60.21c1-1.58,1.59-3.56,2.9-4.81,5.71-5.48,11.48-10.93,17.51-16C53.68,34,60.33,29,68,25.53a65.14,65.14,0,0,0,10.16-5.18A20.32,20.32,0,0,1,88,16.93c1.28-.13,2.46-1.22,3.69-1.87,2.34-1.24,4.66-2.53,7-3.7,2-1,4.27-1.66,6.17-2.84,2.13-1.33,3.72-1.17,5.57.56a7.44,7.44,0,0,0,4.17,2.12c5.78.35,11.66,1,17.32.22,3.85-.54,7.18,0,10.78.66,4,.69,7.82,2.72,12.08,1.5a6.17,6.17,0,0,1,2.84.43c2.05.52,4.06,1.23,6.13,1.63,2.72.53,5.57.53,8.2,1.29,7.66,2.21,15.06,2.34,22.25-1.62,1.94-1.06,4.05-2.47,6.11-2.51,5.15-.11,8.79-3.27,12.74-5.63,6.48-3.88,13.08-6,20.44-3.28,3.91,1.44,8.19,2.69,11.32,5.23,5.46,4.45,8.54,10.67,9.61,17.78C254.61,27.86,255.55,28.7,256.13,29.6ZM134.59,219.87c1.19-.29,2.23-.48,3.24-.8,3.78-1.21,7.59-2.35,11.31-3.74,4.75-1.77,9.46-3.64,14.1-5.68a26.17,26.17,0,0,0,6.36-3.75c4.34-3.67,8.31-7.76,12.65-11.42,5.54-4.69,9.38-10.66,13.31-16.6a19.05,19.05,0,0,0,2.14-3.36c2-5,3.56-10.22,5.74-15.15A34.1,34.1,0,0,0,206,144.25c-.12-4.44-.23-8.89-.55-13.32a46.47,46.47,0,0,0-1.21-6.44c-.43-1.91-1.17-3.76-1.41-5.69-.84-6.47-3-12.51-7.65-17s-6.95-11-12.69-14.51c-.27-.17-.4-.59-.62-.87-.85-1.11-1.49-2.6-2.62-3.25-2.29-1.33-3-3.34-3.56-5.67-.94-4.14-4.29-6.57-7.22-9-5.68-4.72-11.75-9-17.71-13.35a22.42,22.42,0,0,0-4.83-2.74A54.76,54.76,0,0,0,138.35,50c-3.61-.84-7.28-1.43-10.93-2.1a14.17,14.17,0,0,1-2.9-.45c-2.3-1-4.47-2.25-7.15-1.36-1.84.61-2.39-.66-2.56-2.15-.21-1.95-.32-3.91-.53-5.86-.51-4.71-6.17-7.47-10.49-5.3-1.89,1-4.19,2.32-6,2-5.23-1-9.71,1.18-14,2.93C76.5,40.56,69.66,44.5,62.61,47.93c-1.8.88-4.06,1.07-5.57,2.26C52.55,53.7,48.36,57.59,44,61.25c-1.77,1.47-4.53,2.35-5.39,4.18-1.1,2.34-2.84,3.49-4.61,4.91a2.87,2.87,0,0,0-1.15,1.76C32.71,76.3,29,76.69,26.39,78c-2.07,1-3,1.74-2.62,4.12a8.38,8.38,0,0,1-.4,3.85c-.88,2.42-2.27,4.67-3.05,7.12-1,3.13-1.44,6.44-2.42,9.58-.51,1.64-1.65,3.08-2.65,4.87.14.64,1,2.12.59,3.17a14.75,14.75,0,0,0-.54,8.14c.46,2.4.38,4.82-3.13,5.48-.85.16-1.54,2.45-1.85,3.85-.35,1.57.32,3.53-.38,4.8-1,1.86-.89,3.22.41,4.55,3.05,3.12,3.77,6.89,3.5,11l-3-.2c.55,1.39.73,3.14,1.39,3.34,3.71,1.16,2,3.55,1.54,5.66-1,4.41.38,8.7,5.64,8.44a3.41,3.41,0,0,1,2.38.75c1.81,1.94,3.41,4.07,5.13,6.09a10,10,0,0,1,1.25,11.8c-1.58,2.76-1.4,5,.64,7.31a8.8,8.8,0,0,0,6.27,3.2,6.66,6.66,0,0,1,3.46,1.79c.92.82,1.25,2.42,2.23,3.06a107.43,107.43,0,0,0,12.45,7.3c5.32,2.45,10.61,4.73,14.36,9.5a2.67,2.67,0,0,0,1.5,1.06c4,.43,6.21,3.61,9.15,5.72,2,1.4,4.56,1.82,6.78,2.87,5.94,2.81,11.81,5.73,17.74,8.55a7.07,7.07,0,0,0,2.33.39c1.64.13,3.28.2,4.92.33a9.75,9.75,0,0,0,1.82.23c3.3-.45,6.57-1.22,9.88-1.4s6.48.42,9.71.34c2.3-.05,4.63-1.16,6.85-.91,5.24.57,9.62-2,14.36-3.27a75.72,75.72,0,0,0,10.3-3.4,68,68,0,0,0,10.68-5.29c4.8-3.08,9.1-7,14-9.89,3.39-2,5.92-4.21,5.93-8.3a3.85,3.85,0,0,0-1.52-3,4.2,4.2,0,0,0-3.6.17c-3.42,2.3-6.52,5.09-10,7.37-5.52,3.68-10.91,7.68-17.6,9.15a3.2,3.2,0,0,0-1.21.53c-6.14,4.6-13.41,4.93-20.62,5.52C136.57,223.54,135.07,222.51,134.59,219.87Zm97-180.4c-1-1.18-1.88-2.34-2.9-3.32-1.55-1.5-1.6-3.24-.14-4.48,2-1.69,3.34-3.35,2.51-6.12-.1-.33.56-.85.78-1.32.39-.86.73-1.75,1.09-2.63a11.51,11.51,0,0,0-2.86.56c-2.06,1-3.2.6-3-1.53.35-3.07-1.37-4.84-3.43-6.17s-4.33-1.87-6.55-2.68c-.29-.1-.82.3-1.17.56a7.32,7.32,0,0,1-7.26,1.27,4.35,4.35,0,0,0-3.35.37,21.24,21.24,0,0,0-8.66,10.21c-.85,2.22,1.06,5.19,3,4.9,2.24-.34,4.72,2.27,4.39,4.56a23.2,23.2,0,0,0-.1,2.51,7.83,7.83,0,0,1,2.41-.58,17.17,17.17,0,0,1,4.91,1.08c.25.11-.28,2.36-.66,3.56-.45,1.43-1.68,2.83-1.56,4.15s1.42,3.19,2.44,3.35c1.75.28,3.67-.62,5.53-1,1.66-.31,3.76,1.37,4.05,3a42,42,0,0,0,1.44,6.4,3.64,3.64,0,0,0,4.54,2.71c-.55-1-.95-1.51-1.21-2.12-.35-.84-.61-1.73-.91-2.6a8.62,8.62,0,0,1,2.44-.77c2.19,0,4.37.19,6.53.31-3.61-3.47-3.82-5-1.07-7.64C229.12,42.59,229.12,42.59,231.61,39.47Zm-26.94,7.09c3.4-1.66,2-2.86-1.71-6C201.52,43.17,203.53,44.65,204.67,46.56ZM201.35,35.5l.78-.56c-.44-.94-.64-2.3-1.37-2.69s-2,.2-3,.36l0,.65Z" transform="translate(-3.69 -2.67)"/><path class="cls-1" d="M23.41,50.1c5.56-.27,7.81-3.71,8.13-10,.13-2.47-3.05-6-5.24-6C22.17,34,16.94,39,16.93,43,16.91,47.38,19.34,50.05,23.41,50.1Z" transform="translate(-3.69 -2.67)"/><path class="cls-1" d="M23.41,50.1c-4.07-.05-6.5-2.72-6.48-7.15,0-4,5.24-8.93,9.37-8.89,2.19,0,5.37,3.58,5.24,6C31.22,46.39,29,49.83,23.41,50.1Z" transform="translate(-3.69 -2.67)"/><path class="cls-1" d="M197.67,126c.8,2.94,1.34,5.36-1.21,7.58-4.31,3.75-7,4.21-13.06,1.48-.55.94-1.12,1.9-1.66,2.88-2.27,4.17-5,7.91-9.49,10-5.79,2.65-11.33,1.1-14.83-4.22-1.07-1.63-1.81-3.46-2.89-5.55-.68.81-1.24,1.56-1.88,2.24-2.87,3.09-5.61,6.31-8.7,9.18a19.5,19.5,0,0,1-5.92,3.61c-5.51,2.25-10.34.52-13.36-4.61a58.06,58.06,0,0,1-2.53-5.49c-1.68,2.16-3.17,4.21-4.8,6.13a59.16,59.16,0,0,1-6.31,7c-5.18,4.44-10.17,2.95-12.23-3.51-.72-2.27-1.07-4.66-1.69-7.46-.57.93-.94,1.56-1.34,2.19-2.1,3.33-3.9,6.92-6.39,9.94C83,165.1,74.79,163.72,71,154.47c-.34-.81-.67-1.63-.79-1.9-3.12,2.8-6.38,5.6-9.46,8.58-.56.55-.54,1.82-.59,2.76-.49,7.73-1.07,15.46-4.86,22.44a24,24,0,0,1-4,5.65c-3.89,3.88-9,3.11-11.72-1.68a13.07,13.07,0,0,1-.29-13.18c2.06-3.68,5.2-6.75,7.83-10.11.58-.73,1.47-1.55,1.48-2.34.1-10.32.06-20.64-.48-31.15L34.1,156.36l-1.39-.49c.27-1.9,0-4.09.89-5.67,4.88-8.88,10-17.65,15.14-26.38A7.3,7.3,0,0,1,52,121.06c2.7-1.15,5.56-1.93,8.45-2.89v38.37c4-4.52,8.52-7.87,9.07-14.16,1-11.32,6.43-20.25,15.75-26.67,5.89-4.06,10.41-3.31,15.09,2.13,4.08-2,6.48-6.61,11.74-7.68-.7,4.81-1.43,9.21-2,13.63-.71,5.87-1.39,11.75-1.87,17.65-.18,2.2-.17,4.87,2.33,5.83,2.7,1,4.15-1.31,5.73-3,3.83-4.13,5.19-8.75,5.22-14.57.08-16.16,3.52-31.88,8.44-47.25a4.45,4.45,0,0,1,1.76-2.19c3.19-2,6.5-3.83,9.72-5.78,1.84-1.12,3.24-.6,3.87,1.24a31.44,31.44,0,0,1,1.69,7c1.19,11.54-1.71,22.26-6.87,32.47-1.26,2.49-2.27,5.21-4,7.31-3.65,4.42-3.09,9.3-2.24,14.28a16.61,16.61,0,0,0,1.6,4.81c1.77,3.4,4.77,4.43,7.84,2.2,2.72-2,4.93-4.66,7.22-7.15a12.07,12.07,0,0,0,3.42-8.4c.19-8.43,3.73-15.62,9.81-21.49a24.61,24.61,0,0,1,16.28-6.83c4.25-.24,6,1.14,6.57,5.31,1.05,7.57-.1,15-1.28,22.51-.2,1.25-.29,3.12.43,3.8a4.82,4.82,0,0,0,6,.62,22,22,0,0,0,3.76-3.41A31.35,31.35,0,0,0,197.67,126Zm-100.07.83c0-.72.05-1.44,0-2.15-.21-2.91-.41-5.94-3.67-7.18-2.46-.93-5.22.8-7.34,4.28a10.57,10.57,0,0,0-1.22,2.39c-1.28,4.28-2.82,8.52-3.59,12.9a28.84,28.84,0,0,0,.13,9.85,6.14,6.14,0,0,0,3.51,4.16c1.48.39,3.68-.79,5.15-1.85a10.05,10.05,0,0,0,2.72-3.94A43.36,43.36,0,0,0,97.6,126.85ZM179,103.61a9.63,9.63,0,0,0-10,6c-4,8.5-4.12,17.33-1.49,26.22.71,2.38,2,4.55,4.79,4.93S176.63,139,178,137c.4-.59.68-1.26,1.08-1.85,1.16-1.69,1-3-.35-4.74-6-7.6-6.22-17-.88-25C178.2,104.91,178.52,104.39,179,103.61Zm-44.84,15.18c.42-.64.88-1.26,1.25-1.93a62.16,62.16,0,0,0,7.44-20.36,79.21,79.21,0,0,0,.73-12.8c0-1.16-1.3-2.32-2-3.47-.84,1-2.08,2-2.47,3.14C135.36,94.81,134.58,106.71,134.17,118.79ZM49.28,170.61C43,174.31,39.73,182.1,42,187.23c.59,1.33,2.3,2.15,3.49,3.21,1-1.17,2.65-2.26,2.79-3.52C48.86,181.72,49,176.47,49.28,170.61Z" transform="translate(-3.69 -2.67)"/><path class="cls-1" d="M62.87,96.39c-.08,5.4-.27,10.06-4.89,12.91a9.39,9.39,0,0,1-10.56-.76L51.21,98C55,99.93,59,100.06,62.87,96.39Z" transform="translate(-3.69 -2.67)"/></svg>